<?xml version="1.0" encoding="utf-8"?>
<!-- Generator: Adobe Illustrator 22.1.0, SVG Export Plug-In . SVG Version: 6.00 Build 0)  -->
<svg version="1.1" id="Layer_1" xmlns="http://www.w3.org/2000/svg" xmlns:xlink="http://www.w3.org/1999/xlink" x="0px" y="0px"
	 viewBox="0 0 747 747" style="enable-background:new 0 0 747 747;" xml:space="preserve">
<style type="text/css">
	.st0{filter:url(#Ellipse_12);}
	.st1{fill:#FFFFFF;}
	.st2{clip-path:url(#SVGID_2_);}
	.st3{fill:none;stroke:#1D1D1B;stroke-width:2;stroke-miterlimit:10;}
	.st4{fill:#31B4A8;stroke:#1D1D1B;stroke-width:2;stroke-miterlimit:10;}
	.st5{fill:#717070;stroke:#1D1D1B;stroke-width:2;stroke-miterlimit:10;}
	.st6{fill:#F07F1E;stroke:#1D1D1B;stroke-width:2;stroke-miterlimit:10;}
	.st7{fill:#F07F1E;}
</style>
<filter  filterUnits="userSpaceOnUse" height="747" id="Ellipse_12" width="747" x="0" y="0">
	<feOffset  input="SourceAlpha"></feOffset>
	<feGaussianBlur  result="blur" stdDeviation="29.5"></feGaussianBlur>
	<feFlood  flood-color="#60e9ff" flood-opacity="0.271"></feFlood>
	<feComposite  in2="blur" operator="in"></feComposite>
	<feComposite  in="SourceGraphic" operator="over"></feComposite>
</filter>
<g id="image" transform="translate(-960.5 -270.5)">
	<g transform="matrix(1, 0, 0, 1, 960.5, 270.5)" class="st0">
		<circle id="Ellipse_12-2_1_" class="st1" cx="373.5" cy="373.5" r="285"/>
	</g>
	<g id="Ellipse_12_copy-2">
		<circle id="Ellipse_12_copy-3" class="st1" cx="1334" cy="644" r="262"/>
		<g>
			<defs>
				<circle id="SVGID_1_" cx="1334" cy="644" r="262"/>
			</defs>
			<clipPath id="SVGID_2_">
				<use xlink:href="#SVGID_1_"  style="overflow:visible;"/>
			</clipPath>
			<g class="st2">
				<g id="Layer_2_1_">
					<g id="Layer_1-2">
						<path class="st3" d="M1264.2,780.8l-0.3-13.3c8.3-2,14.7-5.1,20.9-9.2l0.2,0l9.7,9.2c2.2,2,5.6,2,7.6-0.2l16-16.8
							c2-2.1,2-5.5-0.2-7.6l-9.6-9c3.8-6.6,6.5-12.4,7.9-20.8h0.1l13.3-0.3c3-0.1,5-2.8,4.9-5.8l-0.6-23.1c-0.1-3-2.2-4-5.2-3.9
							l-13.3,0.3c-1.8-7.5-4.9-14.7-9.2-21.1l0-0.4l9.1-9.8c2-2.2,1.9-5.6-0.2-7.6l-16.8-16c-2.1-2-5.5-2-7.6,0.2l-9.5,9.6
							c-6.6-3.8-12.9-6.5-21.4-7.9v-0.1l-0.3-13.3c-0.1-3-1.8-4.5-4.8-4.5l-23.1,0.6c-3,0.1-5,1.8-4.9,4.7l0.3,13.3
							c-8.3,2-14.4,5.1-20.6,9.2l-0.1,0l-9.7-9.2c-2.1-2-5.5-2-7.6,0.2l-15.9,16.8c-2,2.1-2,5.5,0.2,7.6c0,0,0,0,0,0l9.7,9.8
							c-3.9,6.6-6.6,14-7.9,21.6h-0.1l-13.3,0.3c-3,0.1-5.6,1.4-5.5,4.3l0.6,23.1c0.2,3,2.7,5.4,5.7,5.4l13.3-0.3
							c2,8.3,5.1,14.2,9.2,20.4h0l-9.2,9.6c-2,2.1-2,5.5,0.2,7.5c0,0,0,0,0,0l16.8,15.9c2.1,2,5.5,1.9,7.6-0.2c0,0,0,0,0,0l9.2-9.6
							c6.6,3.8,14.3,6.5,21.1,7.9v0.1l0.3,13.3c0.1,3,2.4,6,5.3,6l23.1-0.6C1262.8,786.9,1264.3,783.8,1264.2,780.8z M1215,685.1
							c0.1-0.3,0.3-0.7,0.4-1c0.4-1,0.9-2,1.5-2.9c0.3-0.5,0.5-0.9,0.8-1.4c0.3-0.5,0.6-0.9,0.9-1.3c0.2-0.2,0.3-0.4,0.5-0.6
							c0.9-1.2,1.9-2.4,3-3.5c1.1-1.1,2.2-2.1,3.5-3.1c0.5-0.4,1-0.7,1.5-1.1c13.5-9.1,31.5-7.2,42.8,4.5c0.6,0.6,1.1,1.2,1.6,1.8
							c0.2,0.2,0.3,0.4,0.5,0.6c0.3,0.4,0.7,0.8,1,1.3c0.9,1.3,1.8,2.7,2.5,4.1c0.2,0.5,0.5,1,0.7,1.5c4.1,9,3.9,19.3-0.3,28.1
							c-0.2,0.5-0.5,1-0.7,1.4c-0.4,0.7-0.8,1.4-1.2,2.1c-0.3,0.5-0.6,0.9-0.9,1.3c-0.2,0.2-0.3,0.4-0.5,0.6c-0.3,0.4-0.6,0.8-1,1.3
							c-0.5,0.6-1,1.2-1.6,1.8c-0.4,0.4-0.7,0.8-1.1,1.1c-1,0.9-2,1.8-3,2.6c-0.4,0.3-0.9,0.6-1.3,0.9c-0.4,0.3-0.9,0.6-1.4,0.9
							c-0.7,0.4-1.4,0.8-2.1,1.2c-7,3.6-15,4.6-22.7,2.8c-0.5-0.1-1.1-0.3-1.6-0.4c-0.8-0.2-1.6-0.5-2.3-0.8c-0.5-0.2-1-0.4-1.5-0.6
							c-0.3-0.1-0.7-0.3-1-0.4c-0.7-0.3-1.3-0.6-1.9-1c-0.5-0.3-0.9-0.5-1.4-0.8c-0.4-0.2-0.7-0.5-1.1-0.7s-0.6-0.4-0.9-0.6
							c-0.2-0.2-0.4-0.3-0.7-0.5c-0.4-0.3-0.8-0.7-1.3-1c-0.2-0.2-0.4-0.3-0.6-0.5c-0.4-0.3-0.8-0.7-1.2-1.1
							c-0.2-0.2-0.4-0.4-0.6-0.6c-0.8-0.8-1.5-1.5-2.2-2.4c-0.2-0.2-0.3-0.4-0.5-0.6c-0.3-0.4-0.7-0.8-1-1.3
							c-0.3-0.4-0.6-0.9-0.9-1.3c-0.1-0.2-0.3-0.5-0.4-0.7c-0.3-0.5-0.6-0.9-0.8-1.4c-4.6-8.5-5.3-18.5-2-27.5
							C1214.7,685.8,1214.8,685.4,1215,685.1z"/>
						<path class="st4" d="M1271.8,676.6c0.2,0.2,0.3,0.4,0.5,0.6c0.3,0.4,0.7,0.8,1,1.3c0.9,1.3,1.8,2.7,2.5,4.1
							c0.2,0.5,0.5,1,0.7,1.5c1.8,4.1,2.8,8.5,2.9,12.9c0,0.5,0,0.9,0,1.5h55.5l-0.4-14.7c-0.1-3-2.2-4-5.2-3.9l-13.3,0.3
							c-1.8-7.5-4.9-14.7-9.2-21.1l0-0.4l9.2-9.8c2-2.2,1.9-5.6-0.2-7.6l-16.8-16c-2.1-2-5.5-2-7.6,0.2l-9.5,9.6
							c-6.6-3.8-12.9-6.5-21.3-7.9v-0.1l-0.3-13.3c-0.1-3-1.8-4.5-4.8-4.5l-23.1,0.6c-3,0.1-5,1.8-4.9,4.7l0.3,13.3
							c-8.3,2-14.4,5.1-20.6,9.2l-0.1,0l-9.7-9.2c-2.2-2-5.5-2-7.6,0.2l-15.9,16.8c-2,2.1-2,5.5,0.2,7.6l9.7,9.7
							c-3.9,6.6-6.6,14-7.9,21.6h-0.1l-13.3,0.3c-3,0.1-5.6,1.4-5.5,4.3l0.3,10h55.6c-0.1-4.2,0.6-8.4,2.1-12.3
							c0.1-0.4,0.3-0.7,0.4-1.1s0.3-0.7,0.4-1c0.4-1,0.9-2,1.5-2.9c0.3-0.5,0.5-0.9,0.8-1.4c0.3-0.4,0.6-0.9,0.9-1.3l0.5-0.6
							c0.9-1.2,1.9-2.4,3-3.5c1.1-1.1,2.2-2.1,3.5-3.1c0.5-0.4,1-0.7,1.5-1.1c13.5-9.2,31.6-7.3,42.8,4.5
							C1270.7,675.3,1271.2,675.9,1271.8,676.6z"/>
						<path class="st3" d="M1370.8,640.8l-0.1-4.4c2.5-0.6,4.8-1.6,7-3.1h0.1l3.2,3c0.7,0.7,1.9,0.7,2.5-0.1l5.3-5.6
							c0.7-0.7,0.6-1.8-0.1-2.5l-3.2-3c1.3-2.1,2.2-4.5,2.7-7l0,0l4.4-0.1c1-0.1,1.7-0.9,1.6-1.9c0,0,0,0,0,0l-0.2-7.7
							c0-1-0.7-1.3-1.7-1.3l-4.4,0.1c-0.6-2.5-1.6-4.9-3.1-7v-0.1l3.1-3.3c0.7-0.7,0.6-1.9-0.1-2.6l-5.6-5.3
							c-0.7-0.7-1.8-0.7-2.5,0.1l-3.2,3.2c-2.2-1.3-4.6-2.2-7.1-2.7l0,0l-0.1-4.4c0.1-0.8-0.5-1.4-1.3-1.5c-0.1,0-0.2,0-0.3,0
							l-7.7,0.2c-1,0-1.7,0.6-1.6,1.6l0.1,4.4c-2.5,0.6-4.8,1.6-6.9,3.1h0l-3.2-3.1c-0.7-0.7-1.8-0.6-2.5,0.1l-5.3,5.6
							c-0.7,0.7-0.6,1.8,0.1,2.5l3.2,3.2c-1.3,2.2-2.2,4.7-2.6,7.2l0,0l-4.4,0.1c-1,0-1.9,0.5-1.8,1.4l0.2,7.7
							c0.1,1,0.9,1.8,1.9,1.8l4.4-0.1c0.6,2.4,1.6,4.7,3.1,6.8l0,0l-3.1,3.2c-0.7,0.7-0.7,1.8,0.1,2.5c0,0,0,0,0,0l5.6,5.3
							c0.7,0.7,1.8,0.6,2.5-0.1l3.1-3.2c2.2,1.2,4.6,2.1,7,2.7l0,0l0.1,4.4c0,1,0.8,2,1.8,2l7.7-0.2
							C1370.3,642.9,1370.8,641.8,1370.8,640.8z M1354.4,608.9c0-0.1,0.1-0.2,0.1-0.3c0.1-0.3,0.3-0.6,0.5-1
							c0.1-0.2,0.2-0.3,0.3-0.5c0.1-0.2,0.2-0.3,0.3-0.4l0.2-0.2c0.6-0.8,1.3-1.6,2.2-2.2c0.2-0.1,0.3-0.2,0.5-0.4
							c0.5-0.4,1.1-0.7,1.6-0.9c4.3-2,9.4-1,12.7,2.4c0.2,0.2,0.4,0.4,0.5,0.6l0.2,0.2c0.1,0.1,0.2,0.3,0.3,0.4
							c0.3,0.4,0.6,0.9,0.8,1.4c0.1,0.2,0.2,0.3,0.2,0.5c1.4,3,1.3,6.4-0.1,9.4c-0.1,0.2-0.2,0.3-0.2,0.5c-0.1,0.2-0.3,0.5-0.4,0.7
							c-0.1,0.1-0.2,0.3-0.3,0.4s-0.1,0.1-0.2,0.2c-0.1,0.1-0.2,0.3-0.3,0.4c-0.2,0.2-0.3,0.4-0.5,0.6l-0.4,0.4
							c-0.3,0.3-0.6,0.6-1,0.9c-0.1,0.1-0.3,0.2-0.4,0.3c-0.1,0.1-0.3,0.2-0.5,0.3c-0.2,0.1-0.5,0.3-0.7,0.4
							c-1.5,0.8-3.1,1.2-4.8,1.2c-0.9,0-1.9-0.1-2.8-0.3c-0.2,0-0.4-0.1-0.5-0.1c-0.3-0.1-0.5-0.2-0.8-0.3c-0.2-0.1-0.3-0.1-0.5-0.2
							l-0.3-0.1c-0.2-0.1-0.4-0.2-0.6-0.3l-0.5-0.3l-0.4-0.2c-0.1-0.1-0.2-0.1-0.3-0.2l-0.2-0.2l-0.4-0.3l-0.2-0.2
							c-0.1-0.1-0.3-0.2-0.4-0.4l-0.2-0.2c-0.3-0.3-0.5-0.5-0.7-0.8l-0.2-0.2c-0.1-0.1-0.2-0.3-0.3-0.4c-0.1-0.1-0.2-0.3-0.3-0.4
							c-0.1-0.1-0.1-0.1-0.1-0.2s-0.2-0.3-0.3-0.5c-1.5-2.8-1.8-6.2-0.7-9.2C1354.3,609.2,1354.3,609.1,1354.4,608.9L1354.4,608.9z"
							/>
						<path class="st5" d="M1354.3,609.2c0-0.1,0.1-0.2,0.1-0.4l0.1-0.3c0.1-0.3,0.3-0.6,0.5-1c0.1-0.2,0.2-0.3,0.3-0.5
							s0.2-0.3,0.3-0.4c0-0.1,0.1-0.1,0.2-0.2c0.3-0.4,0.6-0.8,1-1.2c0.4-0.4,0.7-0.7,1.2-1c0.2-0.1,0.3-0.2,0.5-0.4
							c0.5-0.4,1.1-0.7,1.6-0.9c4.3-2,9.4-1,12.7,2.4c0.2,0.2,0.4,0.4,0.5,0.6l0.2,0.2c0.1,0.1,0.2,0.3,0.3,0.4
							c0.3,0.4,0.6,0.9,0.8,1.4c0.1,0.2,0.2,0.3,0.2,0.5c0.6,1.4,1,2.8,1,4.3c0,0.1,0,0.2,0,0.4l18.5,0l-0.1-4.7
							c0-1-0.7-1.3-1.7-1.3l-4.4,0.1c-0.6-2.5-1.6-4.9-3.1-7v-0.1l3-3.3c0.7-0.7,0.7-1.9-0.1-2.6l-5.6-5.3c-0.7-0.7-1.8-0.7-2.5,0.1
							l-3.2,3.2c-2.2-1.3-4.6-2.2-7.1-2.7l0,0l-0.1-4.4c0.1-0.8-0.5-1.4-1.3-1.5c-0.1,0-0.2,0-0.3,0l-7.7,0.2c-1,0-1.7,0.6-1.6,1.6
							l0.1,4.4c-2.5,0.6-4.8,1.6-6.9,3.1h0l-3.2-3.1c-0.7-0.7-1.8-0.6-2.5,0.1l-5.3,5.6c-0.7,0.7-0.7,1.8,0.1,2.5c0,0,0,0,0,0
							l3.2,3.2c-1.3,2.2-2.2,4.7-2.6,7.2h0l-4.4,0.1c-1,0-1.9,0.5-1.8,1.4l0.1,3.3l18.6,0C1353.5,611.9,1353.8,610.5,1354.3,609.2z"
							/>
						<path class="st3" d="M1463.6,783.7l-0.3-11.1c6.2-1.5,12.1-4.1,17.4-7.7l0.2,0l8.1,7.6c1.8,1.7,4.6,1.6,6.3-0.2l13.3-13.9
							c1.7-1.8,1.6-4.6-0.1-6.3l-8-7.5c3.2-5.5,5.4-10.3,6.6-17.3h0.1l11-0.3c2.5-0.1,4.2-2.4,4.1-4.8l-0.5-19.2
							c-0.1-2.5-1.9-3.3-4.3-3.3l-11,0.3c-1.5-6.3-4.1-12.2-7.7-17.5l0-0.3l7.6-8.2c1.7-1.8,1.6-4.6-0.2-6.4l-13.9-13.3
							c-1.8-1.7-4.6-1.6-6.3,0.1l-7.9,8c-5.5-3.2-10.7-5.4-17.7-6.6v0l-0.3-11.1c-0.1-2.5-1.5-3.8-4-3.7l-19.2,0.5
							c-2.5,0.1-4.2,1.5-4.1,3.9l0.3,11.1c-7,1.7-12,4.3-17.1,7.7l-0.1,0l-8-7.6c-1.8-1.7-4.6-1.6-6.3,0.2l-13.2,13.9
							c-1.7,1.8-1.6,4.6,0.2,6.3l8,8.1c-3.3,5.5-5.5,11.6-6.6,17.9h-0.1l-11,0.3c-2.5,0.1-4.6,1.1-4.6,3.6l0.5,19.2
							c0.2,2.5,2.3,4.5,4.8,4.5l11-0.3c1.7,7,4.3,11.8,7.7,16.9h0l-7.6,8c-1.7,1.8-1.6,4.6,0.1,6.3c0,0,0,0,0,0l13.9,13.2
							c1.8,1.7,4.6,1.6,6.3-0.2l7.7-8c5.5,3,11.4,5.3,17.5,6.6v0l0.3,11.1c0.1,2.5,2,5,4.4,5l19.2-0.5
							C1462.4,788.8,1463.7,786.2,1463.6,783.7z M1422.7,704.2c0.1-0.3,0.2-0.5,0.3-0.8c0.4-0.8,0.8-1.6,1.2-2.4
							c0.2-0.4,0.5-0.8,0.7-1.1c0.2-0.4,0.5-0.7,0.7-1.1l0.4-0.5c0.8-1,1.6-2,2.5-2.9c0.9-0.9,1.9-1.8,2.9-2.5
							c0.4-0.3,0.8-0.6,1.2-0.9c1.3-0.9,2.6-1.6,4-2.3c10.7-4.9,23.4-2.5,31.6,6c0.5,0.5,0.9,1,1.3,1.5l0.4,0.5
							c0.3,0.3,0.5,0.7,0.8,1.1c0.8,1.1,1.5,2.2,2.1,3.4c0.2,0.4,0.4,0.8,0.6,1.2c3.4,7.5,3.3,16-0.3,23.4c-0.2,0.4-0.4,0.8-0.6,1.2
							c-0.3,0.6-0.7,1.2-1,1.7c-0.2,0.4-0.5,0.7-0.7,1.1l-0.4,0.5c-0.3,0.4-0.5,0.7-0.8,1c-0.4,0.5-0.9,1-1.3,1.5
							c-0.3,0.3-0.6,0.6-0.9,0.9c-0.8,0.8-1.6,1.5-2.5,2.1c-0.4,0.3-0.7,0.5-1.1,0.8c-0.4,0.3-0.7,0.5-1.1,0.7
							c-0.6,0.3-1.2,0.7-1.8,1c-5.8,3-12.5,3.8-18.9,2.3c-0.4-0.1-0.9-0.2-1.3-0.3c-0.7-0.2-1.3-0.4-1.9-0.6
							c-0.4-0.2-0.8-0.3-1.3-0.5l-0.8-0.4c-0.5-0.2-1.1-0.5-1.6-0.8c-0.4-0.2-0.8-0.4-1.2-0.7c-0.3-0.2-0.6-0.4-0.9-0.6
							c-0.3-0.2-0.5-0.3-0.8-0.5l-0.5-0.4c-0.4-0.3-0.7-0.5-1-0.8c-0.2-0.1-0.3-0.3-0.5-0.4c-0.3-0.3-0.7-0.6-1-0.9
							c-0.2-0.1-0.3-0.3-0.5-0.5c-0.6-0.6-1.2-1.3-1.8-2l-0.4-0.5c-0.3-0.3-0.5-0.7-0.8-1.1c-0.3-0.4-0.5-0.7-0.7-1.1l-0.4-0.6
							c-0.2-0.4-0.5-0.8-0.7-1.2c-3.8-7-4.4-15.4-1.6-22.9C1422.4,704.8,1422.6,704.5,1422.7,704.2z"/>
						<path class="st6" d="M1420.2,715.5c-0.1-3.5,0.5-7.1,1.7-10.4c0.1-0.3,0.2-0.6,0.3-0.9c0.1-0.3,0.2-0.5,0.3-0.8
							c0.4-0.8,0.8-1.6,1.2-2.4c0.2-0.4,0.4-0.8,0.7-1.1c0.2-0.4,0.5-0.7,0.7-1.1l0.4-0.5c0.8-1,1.6-2,2.5-2.9
							c0.9-0.9,1.9-1.8,2.9-2.5c0.4-0.3,0.8-0.6,1.2-0.9c1.3-0.9,2.6-1.6,4-2.3c10.7-4.9,23.4-2.5,31.6,6c0.5,0.5,0.9,1,1.3,1.5
							l0.4,0.5c0.3,0.3,0.5,0.7,0.8,1.1c0.8,1.1,1.5,2.2,2.1,3.4c0.2,0.4,0.4,0.8,0.6,1.2c1.5,3.4,2.4,7,2.4,10.7c0,0.5,0,1,0,1.4
							l46.1-0.4l-0.3-11.9c-0.1-2.5-1.9-3.3-4.3-3.3l-11.1,0.3c-1.5-6.3-4.1-12.2-7.7-17.5l0-0.3l7.6-8.2c1.7-1.8,1.6-4.6-0.2-6.4
							l-13.9-13.3c-1.8-1.7-4.6-1.6-6.3,0.1l-7.9,8c-5.5-3.2-10.7-5.4-17.7-6.6v0l-0.3-11.1c-0.1-2.5-1.5-3.8-4-3.7l-19.2,0.5
							c-2.5,0.1-4.2,1.5-4.1,3.9l0.3,11.1c-6.9,1.7-12,4.3-17.1,7.7l-0.1,0l-8-7.6c-1.8-1.7-4.6-1.6-6.3,0.2l-13.2,13.9
							c-1.7,1.8-1.6,4.6,0.2,6.3l8,7.7c-3.2,5.4-5.4,11.4-6.6,17.5h0l-11.1,0.7c-2.5,0.1-4.6,1.3-4.6,3.8l0.2,9.5l46.3-0.4
							C1420.2,715.8,1420.2,715.6,1420.2,715.5z"/>
						<polygon class="st7" points="1577.3,638.2 1333.5,497.4 1333.5,497.4 1333.4,497.4 1333.4,497.4 1333.4,497.4 1089.6,638.2 
							1100.1,656.5 1333.4,521.8 1566.8,656.5 						"/>
					</g>
				</g>
			</g>
		</g>
	</g>
</g>
</svg>
