<svg xmlns="http://www.w3.org/2000/svg" xmlns:xlink="http://www.w3.org/1999/xlink" width="747" height="747" viewBox="0 0 747 747">
  <defs>
    <filter id="Ellipse_12" x="0" y="0" width="747" height="747" filterUnits="userSpaceOnUse">
      <feOffset input="SourceAlpha"/>
      <feGaussianBlur stdDeviation="29.5" result="blur"/>
      <feFlood flood-color="#60e9ff" flood-opacity="0.271"/>
      <feComposite operator="in" in2="blur"/>
      <feComposite in="SourceGraphic"/>
    </filter>
    <clipPath id="clip-path">
      <circle id="Ellipse_12_copy" data-name="Ellipse 12 copy" cx="262" cy="262" r="262" transform="translate(1072 382)" fill="#fff"/>
    </clipPath>
  </defs>
  <g id="image" transform="translate(-960.5 -270.5)">
    <g transform="matrix(1, 0, 0, 1, 960.5, 270.5)" filter="url(#Ellipse_12)">
      <circle id="Ellipse_12-2" data-name="Ellipse 12" cx="285" cy="285" r="285" transform="translate(88.5 88.5)" fill="#fff"/>
    </g>
    <g id="Ellipse_12_copy-2" data-name="Ellipse 12 copy">
      <circle id="Ellipse_12_copy-3" data-name="Ellipse 12 copy" cx="262" cy="262" r="262" transform="translate(1072 382)" fill="#fff"/>
      <g id="Clip" clip-path="url(#clip-path)">
        <g id="inventory" transform="translate(1177 487)">
          <g id="Group_158" data-name="Group 158" transform="translate(56.871 184.744)">
            <g id="Group_157" data-name="Group 157">
              <g id="Group_155" data-name="Group 155" transform="translate(27.687)">
                <g id="Group_144" data-name="Group 144" transform="translate(0 6.902)">
                  <g id="Group_143" data-name="Group 143">
                    <g id="Group_142" data-name="Group 142">
                      <path id="Path_101" data-name="Path 101" d="M207.638,386.277H141.905a4.026,4.026,0,0,1-4.026-4.026V316.519a4.026,4.026,0,0,1,4.026-4.026h65.733a4.026,4.026,0,0,1,4.026,4.026v65.733A4.026,4.026,0,0,1,207.638,386.277Z" transform="translate(-137.879 -312.493)" fill="#ffc751"/>
                      <path id="Path_102" data-name="Path 102" d="M220.367,338.866v53.582a4.028,4.028,0,0,1-4.024,4.032H160.387A75.726,75.726,0,0,0,220.367,338.866Z" transform="translate(-146.583 -322.692)" fill="#ffaf40"/>
                      <g id="Group_141" data-name="Group 141" transform="translate(10.451 10.448)">
                        <path id="Path_103" data-name="Path 103" d="M207.8,333.441v45.066a3.908,3.908,0,0,1-3.908,3.908H158.828a3.908,3.908,0,0,1-3.908-3.908V333.441a3.908,3.908,0,0,1,3.908-3.908h45.066A3.908,3.908,0,0,1,207.8,333.441Z" transform="translate(-154.92 -329.531)" fill="#b55434"/>
                        <path id="Path_104" data-name="Path 104" d="M221.538,333.442v45.066a3.908,3.908,0,0,1-3.908,3.908H190.435A52.7,52.7,0,0,0,214.6,329.534h3.026A3.907,3.907,0,0,1,221.538,333.442Z" transform="translate(-168.654 -329.531)" fill="#7f392c"/>
                        <path id="Path_105" data-name="Path 105" d="M200.869,329.533h-42.04a3.909,3.909,0,0,0-3.908,3.908v1.3H186.77a5.655,5.655,0,0,1,5.654,5.97c0,.023,0,.046,0,.067A43.644,43.644,0,0,1,155.7,380.844h0a3.9,3.9,0,0,0,3.132,1.57H176.7a52.7,52.7,0,0,0,24.168-52.883Z" transform="translate(-154.92 -329.531)" fill="#a1412b"/>
                        <g id="Group_140" data-name="Group 140" transform="translate(0)">
                          <path id="Path_106" data-name="Path 106" d="M207.8,333.441V339.7l-3.791,3.791-35.116,35.123-3.8,3.8h-6.263a3.91,3.91,0,0,1-3.912-3.911v-6.271l42.705-42.705H203.9A3.91,3.91,0,0,1,207.8,333.441Z" transform="translate(-154.92 -329.529)" fill="#ff8f33"/>
                        </g>
                        <path id="Path_107" data-name="Path 107" d="M206.4,345.887,171.283,381.01A25.948,25.948,0,0,1,161.1,370.835l35.123-35.123A26.015,26.015,0,0,1,206.4,345.887Z" transform="translate(-157.31 -331.92)" fill="#ffaf40"/>
                      </g>
                    </g>
                    <path id="Path_108" data-name="Path 108" d="M181.225,322.942h-21.08a5.225,5.225,0,1,1,0-10.449h21.08a5.225,5.225,0,1,1,0,10.449Z" transform="translate(-144.469 -312.493)" fill="#fff370"/>
                  </g>
                </g>
                <g id="Group_154" data-name="Group 154" transform="translate(46.721)">
                  <g id="Group_153" data-name="Group 153">
                    <g id="Group_148" data-name="Group 148">
                      <path id="Path_109" data-name="Path 109" d="M311.012,306.92v69.327a5.681,5.681,0,0,1-5.681,5.681h-85.59a5.681,5.681,0,0,1-5.681-5.681V306.92a5.681,5.681,0,0,1,5.681-5.681h85.59A5.681,5.681,0,0,1,311.012,306.92Z" transform="translate(-214.061 -301.239)" fill="#ff8f33"/>
                      <path id="Path_110" data-name="Path 110" d="M303.12,301.24a76.626,76.626,0,0,1-89.058,73.827V306.92a5.681,5.681,0,0,1,5.681-5.681H303.12Z" transform="translate(-214.061 -301.239)" fill="#ffaf40"/>
                      <path id="Path_111" data-name="Path 111" d="M291.174,301.24a64.674,64.674,0,0,1-77.112,61.691v-56.01a5.681,5.681,0,0,1,5.681-5.681Z" transform="translate(-214.061 -301.239)" fill="#ffc751"/>
                      <g id="Group_147" data-name="Group 147" transform="translate(0.001 10.302)">
                        <g id="Group_146" data-name="Group 146">
                          <g id="Group_145" data-name="Group 145">
                            <path id="Path_112" data-name="Path 112" d="M214.062,325.121v21.5a7.084,7.084,0,0,0,14.168,0v-21.5a7.084,7.084,0,1,0-14.168,0Z" transform="translate(-214.062 -318.037)" fill="#fff370"/>
                          </g>
                        </g>
                      </g>
                    </g>
                    <g id="Group_150" data-name="Group 150" transform="translate(68.951 56.223)">
                      <g id="Group_149" data-name="Group 149">
                        <path id="Path_113" data-name="Path 113" d="M345.774,404.448l-6.93-10.231a2.964,2.964,0,0,0-4.908,0l-6.93,10.231a2.964,2.964,0,0,0,2.454,4.626h13.86a2.964,2.964,0,0,0,2.454-4.626Z" transform="translate(-326.491 -392.916)" fill="#79ff79"/>
                        <path id="Path_114" data-name="Path 114" d="M348.175,409.073H342.68a12.525,12.525,0,0,0-3.634-15.184,2.967,2.967,0,0,1,4.653.326l6.929,10.231A2.964,2.964,0,0,1,348.175,409.073Z" transform="translate(-331.346 -392.916)" fill="#29e088"/>
                      </g>
                    </g>
                    <path id="Path_115" data-name="Path 115" d="M297.641,301.24v21.234a5.682,5.682,0,0,1-5.681,5.681H278.766a5.678,5.678,0,0,1-5.632-4.95,5.132,5.132,0,0,1-.049-.731V301.24Z" transform="translate(-236.887 -301.239)" fill="#e0006b"/>
                    <path id="Path_116" data-name="Path 116" d="M290.989,307.682a15.68,15.68,0,0,1-17.854,15.523,5.132,5.132,0,0,1-.049-.731V301.24h16.523a15.626,15.626,0,0,1,1.381,6.442Z" transform="translate(-236.887 -301.239)" fill="#fe2582"/>
                    <g id="Group_152" data-name="Group 152" transform="translate(36.198 0.001)">
                      <g id="Group_151" data-name="Group 151">
                        <path id="Path_117" data-name="Path 117" d="M282.871,301.24v9.478a4.893,4.893,0,1,1-9.787,0V301.24Z" transform="translate(-273.084 -301.24)" fill="#fc70b2"/>
                      </g>
                    </g>
                  </g>
                </g>
              </g>
              <path id="Path_118" data-name="Path 118" d="M288.718,451.286H97.005a4.272,4.272,0,0,1-4.272-4.272v-9.931a4.272,4.272,0,0,1,4.272-4.272H288.717a4.272,4.272,0,0,1,4.272,4.272v9.931a4.271,4.271,0,0,1-4.271,4.272Z" transform="translate(-92.733 -352.12)" fill="#2b6d6c"/>
              <g id="Group_156" data-name="Group 156" transform="translate(44.079 80.689)">
                <path id="Path_119" data-name="Path 119" d="M289.477,432.808a7.308,7.308,0,1,0,7.308,7.308A7.309,7.309,0,0,0,289.477,432.808Z" transform="translate(-210.07 -432.808)" fill="#009887"/>
                <path id="Path_120" data-name="Path 120" d="M219.3,432.808h-47.38a7.308,7.308,0,0,0,0,14.617H219.3a7.308,7.308,0,1,0,0-14.617Z" transform="translate(-164.607 -432.808)" fill="#009887"/>
              </g>
            </g>
          </g>
          <g id="Group_173" data-name="Group 173" transform="translate(56.871 49.059)">
            <g id="Group_172" data-name="Group 172">
              <g id="Group_171" data-name="Group 171" transform="translate(25.595)">
                <g id="Group_164" data-name="Group 164">
                  <g id="Group_163" data-name="Group 163">
                    <g id="Group_162" data-name="Group 162">
                      <g id="Group_161" data-name="Group 161" transform="translate(0 0.001)">
                        <path id="Path_121" data-name="Path 121" d="M214.363,164.5H139.078a4.611,4.611,0,0,1-4.611-4.611V84.607A4.611,4.611,0,0,1,139.078,80h75.285a4.611,4.611,0,0,1,4.611,4.611v75.285A4.61,4.61,0,0,1,214.363,164.5Z" transform="translate(-134.467 -79.996)" fill="#ffc751"/>
                        <path id="Path_122" data-name="Path 122" d="M228.941,110.2v61.368a4.613,4.613,0,0,1-4.609,4.617H160.245A86.727,86.727,0,0,0,228.941,110.2Z" transform="translate(-144.436 -91.677)" fill="#ffaf40"/>
                        <g id="Group_160" data-name="Group 160" transform="translate(11.97 11.968)">
                          <path id="Path_123" data-name="Path 123" d="M214.553,103.988V155.6a4.476,4.476,0,0,1-4.476,4.476H158.461a4.476,4.476,0,0,1-4.476-4.476V103.988a4.476,4.476,0,0,1,4.476-4.476h51.615a4.476,4.476,0,0,1,4.476,4.476Z" transform="translate(-153.985 -99.511)" fill="#b55434"/>
                          <path id="Path_124" data-name="Path 124" d="M230.282,103.988V155.6a4.476,4.476,0,0,1-4.476,4.476H194.66a60.359,60.359,0,0,0,27.68-60.568h3.466a4.476,4.476,0,0,1,4.476,4.476Z" transform="translate(-169.715 -99.511)" fill="#7f392c"/>
                          <path id="Path_125" data-name="Path 125" d="M206.611,99.512H158.461a4.476,4.476,0,0,0-4.476,4.476v1.492h36.477a6.477,6.477,0,0,1,6.476,6.838c0,.027,0,.052,0,.076a49.988,49.988,0,0,1-42.059,45.886h0a4.467,4.467,0,0,0,3.587,1.8H178.93a60.365,60.365,0,0,0,27.68-60.568Z" transform="translate(-153.985 -99.511)" fill="#a1412b"/>
                          <g id="Group_159" data-name="Group 159" transform="translate(0)">
                            <path id="Path_126" data-name="Path 126" d="M214.55,103.989v7.174l-4.341,4.341-40.22,40.228-4.35,4.35h-7.174a4.478,4.478,0,0,1-4.479-4.479v-7.182L202.9,99.51h7.182A4.476,4.476,0,0,1,214.55,103.989Z" transform="translate(-153.985 -99.51)" fill="#ff8f33"/>
                          </g>
                          <path id="Path_127" data-name="Path 127" d="M212.945,118.243l-40.22,40.228a29.713,29.713,0,0,1-11.662-11.654l40.228-40.228a29.789,29.789,0,0,1,11.654,11.654Z" transform="translate(-156.723 -102.248)" fill="#ffaf40"/>
                        </g>
                      </g>
                      <path id="Path_128" data-name="Path 128" d="M184.112,91.963H159.969a5.984,5.984,0,1,1,0-11.968h24.144a5.984,5.984,0,1,1,0,11.968Z" transform="translate(-142.015 -79.995)" fill="#fff370"/>
                    </g>
                  </g>
                </g>
                <g id="Group_170" data-name="Group 170" transform="translate(64.56)">
                  <g id="Group_169" data-name="Group 169">
                    <g id="Group_168" data-name="Group 168">
                      <g id="Group_167" data-name="Group 167" transform="translate(0 0.001)">
                        <path id="Path_129" data-name="Path 129" d="M319.633,164.5H244.348a4.611,4.611,0,0,1-4.611-4.611V84.607A4.611,4.611,0,0,1,244.348,80h75.285a4.611,4.611,0,0,1,4.611,4.611v75.285A4.61,4.61,0,0,1,319.633,164.5Z" transform="translate(-239.737 -79.996)" fill="#ffc751"/>
                        <path id="Path_130" data-name="Path 130" d="M334.211,110.2v61.368a4.613,4.613,0,0,1-4.609,4.617H265.515a86.728,86.728,0,0,0,68.7-65.985Z" transform="translate(-249.706 -91.677)" fill="#ffaf40"/>
                        <g id="Group_166" data-name="Group 166" transform="translate(11.97 11.968)">
                          <path id="Path_131" data-name="Path 131" d="M319.823,103.988V155.6a4.476,4.476,0,0,1-4.476,4.476H263.731a4.476,4.476,0,0,1-4.476-4.476V103.988a4.476,4.476,0,0,1,4.476-4.476h51.615a4.476,4.476,0,0,1,4.476,4.476Z" transform="translate(-259.255 -99.511)" fill="#b55434"/>
                          <path id="Path_132" data-name="Path 132" d="M335.552,103.988V155.6a4.476,4.476,0,0,1-4.476,4.476H299.93a60.359,60.359,0,0,0,27.68-60.568h3.466a4.476,4.476,0,0,1,4.476,4.476Z" transform="translate(-274.985 -99.511)" fill="#7f392c"/>
                          <path id="Path_133" data-name="Path 133" d="M311.881,99.512H263.731a4.476,4.476,0,0,0-4.476,4.476v1.492h36.477a6.477,6.477,0,0,1,6.476,6.838c0,.027,0,.052,0,.076a49.988,49.988,0,0,1-42.059,45.886h0a4.467,4.467,0,0,0,3.587,1.8H284.2a60.365,60.365,0,0,0,27.68-60.568Z" transform="translate(-259.255 -99.511)" fill="#a1412b"/>
                          <g id="Group_165" data-name="Group 165" transform="translate(0)">
                            <path id="Path_134" data-name="Path 134" d="M319.82,103.989v7.174l-4.341,4.341-40.22,40.228-4.35,4.35h-7.174a4.478,4.478,0,0,1-4.479-4.479v-7.182L308.166,99.51h7.182A4.476,4.476,0,0,1,319.82,103.989Z" transform="translate(-259.255 -99.51)" fill="#ff8f33"/>
                          </g>
                          <path id="Path_135" data-name="Path 135" d="M318.215,118.243,278,158.47a29.713,29.713,0,0,1-11.662-11.654l40.228-40.228A29.789,29.789,0,0,1,318.215,118.243Z" transform="translate(-261.993 -102.248)" fill="#ffaf40"/>
                        </g>
                      </g>
                      <path id="Path_136" data-name="Path 136" d="M289.382,91.963H265.239a5.984,5.984,0,0,1,0-11.968h24.144a5.984,5.984,0,1,1,0,11.968Z" transform="translate(-247.285 -79.995)" fill="#fff370"/>
                    </g>
                  </g>
                </g>
              </g>
              <path id="Path_137" data-name="Path 137" d="M288.718,236.273H97.005A4.272,4.272,0,0,1,92.733,232v-9.932a4.272,4.272,0,0,1,4.272-4.272H288.717a4.272,4.272,0,0,1,4.272,4.272V232a4.271,4.271,0,0,1-4.271,4.272Z" transform="translate(-92.733 -133.286)" fill="#2b6d6c"/>
              <path id="Path_138" data-name="Path 138" d="M198.3,217.8h-47.38a7.308,7.308,0,0,0,0,14.617H198.3a7.308,7.308,0,1,0,0-14.617Z" transform="translate(-112.407 -133.285)" fill="#009887"/>
            </g>
          </g>
          <g id="Group_177" data-name="Group 177" transform="translate(0)">
            <g id="Group_176" data-name="Group 176" transform="translate(0)">
              <g id="Group_174" data-name="Group 174" transform="translate(4.275 2.809)">
                <path id="Path_139" data-name="Path 139" d="M0,0H64.762V17.171H0Z" transform="matrix(0.864, -0.503, 0.503, 0.864, 0, 293.549)" fill="#2b6d6c"/>
                <path id="Path_140" data-name="Path 140" d="M0,0H17.171V64.762H0Z" transform="matrix(0.503, -0.864, 0.864, 0.503, 0.077, 232.233)" fill="#2b6d6c"/>
                <path id="Path_141" data-name="Path 141" d="M0,0H64.762V17.171H0Z" transform="matrix(0.864, -0.503, 0.503, 0.864, 0.032, 206.558)" fill="#2b6d6c"/>
                <path id="Path_142" data-name="Path 142" d="M0,0H17.171V64.762H0Z" transform="matrix(0.503, -0.864, 0.864, 0.503, 0.083, 145.267)" fill="#2b6d6c"/>
                <path id="Path_143" data-name="Path 143" d="M0,0H64.762V17.171H0Z" transform="matrix(0.864, -0.503, 0.503, 0.864, 0.064, 119.566)" fill="#2b6d6c"/>
                <path id="Path_144" data-name="Path 144" d="M0,0H17.171V64.762H0Z" transform="matrix(0.503, -0.864, 0.864, 0.503, 0.089, 58.301)" fill="#2b6d6c"/>
                <path id="Path_145" data-name="Path 145" d="M0,0H64.762V17.171H0Z" transform="matrix(0.864, -0.503, 0.503, 0.864, 0.095, 32.575)" fill="#2b6d6c"/>
              </g>
              <g id="Group_175" data-name="Group 175">
                <path id="Path_146" data-name="Path 146" d="M11.265,314H6.133A6.133,6.133,0,0,1,0,307.867V6.133A6.133,6.133,0,0,1,6.133,0h5.132A6.133,6.133,0,0,1,17.4,6.133V307.867A6.133,6.133,0,0,1,11.265,314Z" fill="#009887"/>
                <path id="Path_147" data-name="Path 147" d="M17.4,133.18V67.9A8.7,8.7,0,0,0,0,67.9V133.18a8.7,8.7,0,1,0,17.4,0Z" transform="translate(0 -22.893)" fill="#1cc3af"/>
                <path id="Path_148" data-name="Path 148" d="M102.51,314H97.378a6.133,6.133,0,0,1-6.133-6.133V6.133A6.133,6.133,0,0,1,97.378,0h5.132a6.133,6.133,0,0,1,6.133,6.133V307.867A6.133,6.133,0,0,1,102.51,314Z" transform="translate(-35.286 0)" fill="#009887"/>
                <path id="Path_149" data-name="Path 149" d="M91.245,315.063V347.9a8.7,8.7,0,1,0,17.4,0V315.063a8.7,8.7,0,1,0-17.4,0Z" transform="translate(-35.286 -118.477)" fill="#1cc3af"/>
              </g>
            </g>
            <circle id="Ellipse_4" data-name="Ellipse 4" cx="8.699" cy="8.699" r="8.699" transform="translate(0 130.431)" fill="#1cc3af"/>
          </g>
          <g id="Group_181" data-name="Group 181" transform="translate(240.644)">
            <g id="Group_180" data-name="Group 180">
              <g id="Group_178" data-name="Group 178" transform="translate(4.257 2.897)">
                <path id="Path_150" data-name="Path 150" d="M0,0H64.762V17.171H0Z" transform="matrix(0.864, -0.503, 0.503, 0.864, 0, 293.548)" fill="#2b6d6c"/>
                <path id="Path_151" data-name="Path 151" d="M0,0H17.171V64.762H0Z" transform="matrix(0.503, -0.864, 0.864, 0.503, 0.006, 232.164)" fill="#2b6d6c"/>
                <path id="Path_152" data-name="Path 152" d="M0,0H64.762V17.171H0Z" transform="matrix(0.864, -0.503, 0.503, 0.864, 0.032, 206.558)" fill="#2b6d6c"/>
                <path id="Path_153" data-name="Path 153" d="M0,0H17.171V64.762H0Z" transform="matrix(0.503, -0.864, 0.864, 0.503, 0.013, 145.198)" fill="#2b6d6c"/>
                <path id="Path_154" data-name="Path 154" d="M0,0H64.762V17.171H0Z" transform="matrix(0.864, -0.503, 0.503, 0.864, 0.063, 119.566)" fill="#2b6d6c"/>
                <path id="Path_155" data-name="Path 155" d="M0,0H17.171V64.762H0Z" transform="matrix(0.503, -0.864, 0.864, 0.503, 0.02, 58.232)" fill="#2b6d6c"/>
                <path id="Path_156" data-name="Path 156" d="M0,0H64.762V17.171H0Z" transform="matrix(0.864, -0.503, 0.503, 0.864, 0.095, 32.575)" fill="#2b6d6c"/>
              </g>
              <g id="Group_179" data-name="Group 179">
                <path id="Path_157" data-name="Path 157" d="M403.652,314H398.52a6.133,6.133,0,0,1-6.133-6.133V6.133A6.133,6.133,0,0,1,398.52,0h5.132a6.133,6.133,0,0,1,6.133,6.133V307.867A6.133,6.133,0,0,1,403.652,314Z" transform="translate(-392.387 0)" fill="#009887"/>
                <path id="Path_158" data-name="Path 158" d="M409.785,133.18V67.9a8.7,8.7,0,1,0-17.4,0V133.18a8.7,8.7,0,1,0,17.4,0Z" transform="translate(-392.387 -22.893)" fill="#1cc3af"/>
                <path id="Path_159" data-name="Path 159" d="M494.9,314h-5.132a6.133,6.133,0,0,1-6.133-6.133V6.133A6.133,6.133,0,0,1,489.765,0H494.9a6.133,6.133,0,0,1,6.133,6.133V307.867A6.133,6.133,0,0,1,494.9,314Z" transform="translate(-427.673 0)" fill="#009887"/>
                <path id="Path_160" data-name="Path 160" d="M483.632,315.063V347.9a8.7,8.7,0,1,0,17.4,0V315.063a8.7,8.7,0,1,0-17.4,0Z" transform="translate(-427.673 -118.477)" fill="#1cc3af"/>
              </g>
            </g>
            <circle id="Ellipse_5" data-name="Ellipse 5" cx="8.699" cy="8.699" r="8.699" transform="translate(0 130.431)" fill="#1cc3af"/>
          </g>
        </g>
      </g>
    </g>
  </g>
</svg>
