<?xml version="1.0" encoding="utf-8"?>
<!-- Generator: Adobe Illustrator 22.1.0, SVG Export Plug-In . SVG Version: 6.00 Build 0)  -->
<svg version="1.1" id="Layer_1" xmlns="http://www.w3.org/2000/svg" xmlns:xlink="http://www.w3.org/1999/xlink" x="0px" y="0px"
	 viewBox="0 0 747 747" style="enable-background:new 0 0 747 747;" xml:space="preserve">
<style type="text/css">
	.st0{fill:#FFFFFF;}
	.st1{clip-path:url(#SVGID_2_);}
	.st2{fill:#30B3A7;stroke:#1D1D1B;stroke-width:2;stroke-miterlimit:10;}
	.st3{fill:#F5F5F5;stroke:#1D1D1B;stroke-width:2;stroke-miterlimit:10;}
	.st4{fill:#717070;stroke:#1D1D1B;stroke-width:2;stroke-miterlimit:10;}
	.st5{fill:#EF7E1E;stroke:#1D1D1B;stroke-width:2;stroke-miterlimit:10;}
	.st6{fill:#EF7E1E;}
</style>
<g id="image" transform="translate(-960.5 -270.5)">
	<g transform="matrix(1, 0, 0, 1, 960.5, 270.5)">
		<circle id="Ellipse_12-2_1_" class="st0" cx="373.5" cy="373.5" r="285"/>
	</g>
	<g id="Ellipse_12_copy-2">
		<circle id="Ellipse_12_copy-3" class="st0" cx="1334" cy="644" r="262"/>
		<g>
			<g>
				<g>
					<defs>
						<circle id="SVGID_1_" cx="1334" cy="644" r="262"/>
					</defs>
					<clipPath id="SVGID_2_">
						<use xlink:href="#SVGID_1_"  style="overflow:visible;"/>
					</clipPath>
					<g class="st1">
						<g>
							
								<image style="overflow:visible;opacity:0.25;enable-background:new    ;" width="380" height="235" xlink:href="BD9CCD5C.png"  transform="matrix(1.0834 0 0 1.0834 1136.3816 552.5217)">
							</image>
							<g>
								<g>
									<g>
										<path class="st2" d="M1259.3,784.1l-0.3-14.2c8.9-2.2,15.6-5.5,22.3-9.9h0.2l10.4,9.8c2.3,2.2,6,2.1,8.2-0.2l17.1-17.9
											c2.2-2.3,2.1-5.9-0.2-8l-10.3-9.6c4-7.1,7-13.3,8.5-22.3h0.1l14.2-0.3c3.2-0.1,5.3-3,5.2-6.2l-0.7-24.7
											c-0.1-3.2-2.4-4.2-5.5-4.2l-14.2,0.3c-2.2-8.9-5.5-15.9-9.9-22.5v-0.4l9.8-10.4c2.2-2.3,2.1-6-0.2-8.2l-17.9-17.1
											c-2.3-2.2-5.9-2.1-8,0.2l-10.1,10.3c-7.1-4-13.8-7-22.7-8.5v-0.1l-0.3-14.2c-0.1-3.2-2-4.9-5.1-4.8l-24.7,0.7
											c-3.2,0.1-5.3,1.8-5.3,5l0.3,14.2c-8.9,2.2-15.3,5.4-22,9.9h-0.1l-10.3-9.8c-2.3-2.2-5.9-2.1-8,0.2l-17,17.9
											c-2.2,2.3-2.1,5.9,0.2,8l10.3,10.4c-4,7.1-7,14-8.5,23h-0.1l-14.2,0.3c-3.2,0.1-6,1.4-5.9,4.6l0.7,24.7
											c0.1,3.2,2.9,5.9,6.1,5.8l14.2-0.3c2.2,8.9,5.4,15.1,9.8,21.7l0,0l-9.8,10.2c-2.2,2.3-2.1,5.9,0.2,8l17.9,17
											c2.3,2.2,5.9,2.1,8-0.2l9.9-10.3c7.1,4,15.3,6.8,22.5,8.5v0.1l0.3,14.2c0.1,3.2,2.5,6.4,5.7,6.3l24.7-0.7
											C1257.8,790.7,1259.4,787.3,1259.3,784.1z M1206.8,682c0.1-0.3,0.3-0.7,0.4-1.1c0.4-1.1,1-2.1,1.5-3
											c0.3-0.5,0.5-1,0.9-1.4c0.3-0.4,0.7-1,1-1.4c0.2-0.2,0.3-0.4,0.5-0.7c1-1.3,2.1-2.6,3.3-3.7c1.2-1.2,2.4-2.3,3.7-3.3
											c0.5-0.4,1.1-0.8,1.6-1.2c1.6-1.1,3.4-2.1,5.2-2.9c4.2-2,8.9-3,13.9-3.3c10.4-0.2,19.9,4,26.6,11c0.5,0.7,1.2,1.3,1.7,2
											c0.2,0.2,0.3,0.4,0.5,0.7c0.3,0.4,0.7,0.9,1,1.4c1,1.4,1.8,2.8,2.7,4.3c0.2,0.5,0.5,1,0.8,1.5c2,4.2,3,8.8,3.2,13.8
											c0.1,5.9-1.1,11.3-3.5,16.3c-0.2,0.5-0.5,1-0.8,1.5c-0.4,0.8-0.9,1.5-1.3,2.2c-0.3,0.4-0.7,1-1,1.4
											c-0.2,0.2-0.3,0.4-0.5,0.7c-0.3,0.4-0.7,0.9-1.1,1.3c-0.5,0.7-1.1,1.3-1.7,2c-0.4,0.4-0.8,0.8-1.2,1.2c-1,1-2.1,2-3.3,2.7
											c-0.4,0.3-0.9,0.7-1.4,1c-0.4,0.3-1,0.7-1.4,1c-0.8,0.4-1.5,0.9-2.3,1.3c-4.6,2.4-9.8,3.8-15.3,3.9
											c-3,0.1-6.1-0.2-8.9-0.9c-0.5-0.1-1.1-0.3-1.7-0.4c-0.9-0.2-1.6-0.5-2.5-0.8c-0.5-0.2-1.1-0.4-1.6-0.7
											c-0.3-0.1-0.7-0.3-1.1-0.4c-0.7-0.3-1.4-0.7-2.1-1c-0.5-0.3-1-0.5-1.5-0.9c-0.4-0.2-0.8-0.4-1.2-0.8
											c-0.3-0.2-0.7-0.4-1-0.7c-0.2-0.2-0.4-0.3-0.7-0.5c-0.4-0.3-0.9-0.7-1.3-1.1c-0.2-0.2-0.4-0.3-0.7-0.5
											c-0.4-0.3-0.9-0.8-1.3-1.2c-0.2-0.2-0.4-0.4-0.7-0.5c-0.8-0.8-1.5-1.6-2.3-2.5c-0.2-0.2-0.3-0.4-0.5-0.7
											c-0.3-0.4-0.7-0.9-1-1.4c-0.3-0.4-0.7-1-1-1.4c-0.1-0.2-0.3-0.4-0.4-0.8c-0.3-0.4-0.5-1-0.9-1.5
											c-2.6-4.8-4.1-10.2-4.3-16.1c-0.1-4.7,0.7-9.2,2.2-13.4C1206.5,682.8,1206.6,682.4,1206.8,682z"/>
										<path class="st2" d="M1267.3,672.9c0.2,0.2,0.3,0.4,0.5,0.7c0.3,0.4,0.7,0.9,1,1.4c1,1.4,1.8,2.8,2.7,4.3
											c0.2,0.5,0.5,1,0.8,1.5c2,4.2,3,8.9,3.2,13.8c0,0.5,0,1,0,1.6h59.2l-0.4-15.6c-0.1-3.2-2.4-4.2-5.5-4.2l-14.2,0.3
											c-2.2-8.9-5.5-15.9-9.9-22.5v-0.4l9.8-10.4c2.2-2.3,2.1-6-0.2-8.2l-17.9-17.1c-2.3-2.2-5.9-2.1-8,0.2l-10.1,10.3
											c-7.1-4-13.8-7-22.7-8.5v-0.1l-0.3-14.2c-0.1-3.2-2-4.9-5.1-4.8l-24.7,0.7c-3.2,0.1-5.3,1.8-5.2,5l0.3,14.2
											c-8.9,2.2-15.3,5.4-22,9.8h-0.1l-10.3-9.8c-2.3-2.2-5.9-2.1-8,0.2l-17,17.9c-2.2,2.3-2.1,5.9,0.2,8l10.3,10.4
											c-4,7.1-6.8,14-8.5,23h-0.1l-14.2,0.3c-3.2,0.1-6,1.5-5.9,4.7l0.2,10.6h59.3c-0.1-4.9,0.7-9,2.2-13.1
											c0.1-0.4,0.3-0.8,0.4-1.2c0.1-0.3,0.3-0.7,0.4-1.1c0.4-1.1,1-2.1,1.5-3c0.3-0.5,0.5-1,0.9-1.4c0.3-0.4,0.7-1,1-1.4
											c0.2-0.2,0.3-0.4,0.5-0.7c1-1.3,2.1-2.6,3.3-3.7c1.2-1.2,2.4-2.3,3.7-3.3c0.5-0.4,1.1-0.8,1.6-1.2
											c1.6-1.1,3.4-2.1,5.2-2.9c4.2-2,8.9-3,13.9-3.3c10.4-0.2,19.9,4,26.6,11C1266.3,671.7,1266.8,672.2,1267.3,672.9z"/>
									</g>
									<g>
										<path class="st3" d="M1375.7,646.8l-0.2-6.6c4.1-1,7.4-2.6,10.4-4.7h0.1l4.9,4.6c1.1,1,2.8,1,3.8-0.1l8-8.4
											c1-1.1,1-2.8-0.1-3.8l-4.8-4.6c2-3.4,3.3-6.2,4-10.4l0,0l6.6-0.2c1.5,0,2.5-1.4,2.5-2.9l-0.3-11.6c0-1.5-1.1-2-2.6-2
											l-6.6,0.2c-1-4.1-2.6-7.5-4.7-10.5v-0.2l4.6-4.9c1-1.1,1-2.8-0.1-3.8l-8.4-8c-1.1-1-2.8-1-3.8,0.1l-4.8,4.8
											c-3.4-2-6.5-3.3-10.6-4l0,0l-0.2-6.6c0-1.5-0.9-2.3-2.4-2.3l-11.6,0.3c-1.5,0-2.5,0.9-2.5,2.4l0.2,6.6
											c-4.1,1-7.2,2.6-10.3,4.7h-0.1l-4.9-4.6c-1.1-1-2.8-1-3.8,0.1l-8,8.4c-1,1.1-1,2.8,0.1,3.8l4.9,4.9c-2,3.4-3.3,6.6-4,10.9
											l0,0l-6.6,0.2c-1.5,0-2.8,0.7-2.7,2.2l0.3,11.6c0,1.5,1.4,2.7,2.8,2.7l6.6-0.2c1,4.1,2.6,7.1,4.7,10.2l0,0l-4.6,4.8
											c-1,1.1-1,2.7,0.1,3.8l8.4,7.9c1.1,1,2.8,1,3.8-0.1l4.7-4.8c3.4,2,7.2,3.3,10.5,4l0,0l0.2,6.6c0,1.5,1.2,3,2.7,2.9
											l11.6-0.3C1374.9,649.9,1375.7,648.3,1375.7,646.8z M1351,598.9c0.1-0.2,0.1-0.3,0.2-0.4c0.2-0.5,0.4-1,0.8-1.4
											c0.1-0.2,0.3-0.4,0.4-0.7c0.1-0.2,0.3-0.4,0.4-0.7c0.1-0.1,0.1-0.2,0.2-0.3c0.4-0.7,1-1.2,1.5-1.7
											c0.5-0.5,1.1-1.1,1.7-1.5c0.2-0.2,0.5-0.3,0.8-0.5c0.8-0.5,1.6-1,2.4-1.4c2-0.9,4.2-1.4,6.5-1.5c4.9-0.1,9.3,1.8,12.5,5.1
											c0.3,0.3,0.5,0.5,0.8,0.9c0.1,0.1,0.2,0.2,0.2,0.3c0.2,0.2,0.3,0.4,0.4,0.7c0.4,0.7,0.9,1.3,1.3,2.1
											c0.1,0.2,0.2,0.4,0.3,0.8c0.9,2,1.4,4.1,1.5,6.4c0.1,2.7-0.5,5.3-1.6,7.6c-0.1,0.2-0.2,0.4-0.3,0.8
											c-0.2,0.3-0.4,0.7-0.7,1.1c-0.1,0.2-0.3,0.4-0.4,0.7c-0.1,0.1-0.1,0.2-0.2,0.3c-0.1,0.2-0.3,0.4-0.5,0.7
											c-0.2,0.3-0.5,0.7-0.8,0.9s-0.3,0.4-0.5,0.5c-0.4,0.4-1,0.9-1.5,1.3c-0.2,0.1-0.4,0.3-0.7,0.4c-0.2,0.1-0.4,0.3-0.7,0.4
											c-0.3,0.2-0.7,0.4-1.1,0.5c-2.2,1.1-4.6,1.7-7.2,1.8c-1.4,0-2.8-0.1-4.2-0.4c-0.2-0.1-0.5-0.1-0.8-0.2
											c-0.4-0.1-0.8-0.2-1.2-0.3c-0.2-0.1-0.5-0.2-0.8-0.3s-0.3-0.1-0.5-0.2c-0.3-0.1-0.7-0.3-1-0.4c-0.2-0.1-0.4-0.2-0.7-0.4
											c-0.2-0.1-0.3-0.2-0.5-0.3c-0.1-0.1-0.3-0.2-0.4-0.3s-0.2-0.1-0.3-0.2c-0.2-0.1-0.4-0.3-0.7-0.5c-0.1-0.1-0.2-0.2-0.3-0.2
											c-0.2-0.2-0.4-0.3-0.5-0.5c-0.1-0.1-0.2-0.2-0.3-0.3c-0.3-0.3-0.8-0.8-1.1-1.2c-0.1-0.1-0.2-0.2-0.2-0.3
											c-0.2-0.2-0.3-0.4-0.4-0.7s-0.3-0.4-0.4-0.7c-0.1-0.1-0.1-0.2-0.2-0.3c-0.1-0.2-0.3-0.4-0.4-0.7c-1.2-2.3-2-4.8-2.1-7.5
											c-0.1-2.2,0.3-4.3,1.1-6.3C1350.8,599.2,1350.9,599.1,1351,598.9z"/>
										<g>
											<path class="st4" d="M1350.8,599.3c0.1-0.2,0.1-0.3,0.2-0.5s0.1-0.3,0.2-0.4c0.2-0.5,0.4-1,0.8-1.4
												c0.1-0.2,0.3-0.4,0.4-0.7c0.1-0.2,0.3-0.4,0.4-0.7c0.1-0.1,0.1-0.2,0.2-0.3c0.4-0.7,1-1.2,1.5-1.7s1.1-1.1,1.7-1.5
												c0.2-0.2,0.5-0.3,0.8-0.5c0.8-0.5,1.6-1,2.4-1.4c2-0.9,4.2-1.4,6.5-1.5c4.9-0.1,9.3,1.8,12.5,5.1
												c0.3,0.3,0.5,0.5,0.8,0.9c0.1,0.1,0.2,0.2,0.2,0.3c0.2,0.2,0.3,0.4,0.4,0.7c0.4,0.7,0.9,1.3,1.3,2.1
												c0.1,0.2,0.2,0.4,0.3,0.8c0.9,2,1.4,4.1,1.5,6.4c0,0.2,0,0.3,0,0.5l27.8-0.1l-0.2-7.1c0-1.5-1.1-2-2.6-2l-6.6,0.2
												c-1-4.1-2.6-7.5-4.7-10.5v-0.2l4.6-4.9c1-1.1,1-2.8-0.1-3.8l-8.4-8c-1.1-1-2.8-1-3.8,0.1l-4.8,4.8c-3.4-2-6.5-3.3-10.6-4
												l0,0l-0.2-6.6c0-1.5-0.9-2.3-2.4-2.3l-11.6,0.3c-1.5,0-2.5,0.9-2.5,2.4l0.2,6.6c-4.1,1-7.2,2.6-10.3,4.7h-0.1l-4.9-4.6
												c-1.1-1-2.8-1-3.8,0.1l-8,8.4c-1,1.1-1,2.8,0.1,3.8l4.9,4.9c-2,3.4-3.3,6.6-4,10.9l0,0l-6.6,0.2c-1.5,0-2.8,0.7-2.7,2.2
												l0.1,4.9l27.9-0.1C1349.7,603.2,1350.2,601.1,1350.8,599.3z"/>
										</g>
									</g>
									<g>
										<path class="st3" d="M1472,787.2l-0.3-11.7c7.4-1.7,13-4.6,18.5-8.2h0.2l8.6,8.2c1.8,1.8,5,1.7,6.7-0.2l14.1-14.9
											c1.8-1.8,1.7-4.9-0.1-6.7l-8.6-7.9c3.4-5.9,5.8-11,7.1-18.5l0,0l11.7-0.3c2.6-0.1,4.5-2.5,4.3-5.1l-0.5-20.5
											c-0.1-2.6-2-3.6-4.6-3.5l-11.7,0.3c-1.7-7.4-4.6-13.3-8.2-18.7v-0.3l8.2-8.7c1.8-1.8,1.7-5-0.2-6.7l-14.9-14.1
											c-1.8-1.8-4.9-1.7-6.7,0.1l-8.5,8.6c-5.9-3.4-11.4-5.8-18.9-7.1V651l-0.3-11.7c-0.1-2.6-1.6-4-4.2-4l-20.5,0.5
											c-2.6,0.1-4.5,1.5-4.3,4.2l0.3,11.7c-7.4,1.7-12.8,4.6-18.3,8.2h-0.1l-8.6-8.2c-1.8-1.8-4.9-1.7-6.7,0.2l-14.1,14.9
											c-1.8,1.8-1.7,4.9,0.2,6.7l8.6,8.7c-3.4,5.9-5.8,11.6-7.1,19.1h-0.1l-11.7,0.3c-2.6,0.1-4.9,1.2-4.9,3.8l0.5,20.5
											c0.1,2.6,2.5,4.9,5.1,4.8l11.7-0.3c1.7,7.4,4.6,12.6,8.2,18l0,0l-8.2,8.5c-1.8,1.8-1.7,4.9,0.2,6.7l14.9,14.1
											c1.8,1.8,4.9,1.7,6.7-0.2l8.2-8.6c5.9,3.4,12.7,5.8,18.7,7.1l0,0l0.3,11.7c0.1,2.6,2.1,5.3,4.8,5.3l20.5-0.5
											C1470.8,792.6,1472.1,789.8,1472,787.2z M1428.3,702.4c0.1-0.3,0.2-0.5,0.3-0.9c0.4-0.9,0.9-1.7,1.3-2.5
											c0.2-0.4,0.4-0.9,0.8-1.2c0.2-0.4,0.5-0.8,0.8-1.2c0.1-0.2,0.3-0.4,0.4-0.5c0.9-1.1,1.7-2.2,2.7-3.2c1-1,2-1.8,3-2.7
											c0.4-0.3,0.9-0.7,1.3-1c1.4-1,2.8-1.7,4.3-2.4c3.5-1.6,7.4-2.6,11.5-2.7c8.7-0.2,16.5,3.3,22.1,9.1c0.5,0.5,1,1.1,1.4,1.6
											c0.1,0.2,0.3,0.3,0.4,0.5c0.3,0.3,0.5,0.8,0.9,1.1c0.9,1.2,1.5,2.4,2.2,3.7c0.2,0.4,0.4,0.9,0.7,1.3
											c1.6,3.5,2.5,7.4,2.6,11.4c0.1,4.9-0.9,9.5-2.9,13.5c-0.2,0.4-0.4,0.9-0.7,1.3c-0.3,0.7-0.7,1.2-1.1,1.8
											c-0.2,0.4-0.5,0.8-0.8,1.2c-0.1,0.2-0.3,0.4-0.4,0.5c-0.3,0.3-0.5,0.8-0.9,1.1c-0.4,0.5-0.9,1.1-1.4,1.6
											c-0.3,0.3-0.7,0.7-1,1c-0.9,0.9-1.7,1.6-2.7,2.3c-0.3,0.3-0.8,0.5-1.2,0.9c-0.4,0.2-0.8,0.5-1.2,0.8
											c-0.7,0.3-1.2,0.8-1.8,1.1c-3.8,2-8.2,3.2-12.7,3.3c-2.5,0.1-5-0.2-7.4-0.8c-0.4-0.1-1-0.2-1.4-0.3
											c-0.7-0.2-1.4-0.4-2.1-0.7c-0.4-0.2-0.9-0.3-1.3-0.5c-0.3-0.1-0.5-0.2-0.9-0.4c-0.5-0.2-1.2-0.5-1.7-0.9
											c-0.4-0.2-0.9-0.4-1.2-0.8c-0.3-0.2-0.7-0.4-1-0.7c-0.3-0.2-0.5-0.3-0.9-0.5c-0.2-0.1-0.4-0.3-0.5-0.4
											c-0.3-0.3-0.8-0.5-1.1-0.9c-0.2-0.1-0.3-0.3-0.5-0.4c-0.3-0.3-0.8-0.7-1.1-1c-0.2-0.1-0.3-0.3-0.5-0.5
											c-0.7-0.7-1.3-1.4-2-2.1c-0.1-0.2-0.3-0.3-0.4-0.5c-0.3-0.3-0.5-0.8-0.9-1.1c-0.3-0.4-0.5-0.8-0.8-1.2
											c-0.1-0.2-0.2-0.4-0.3-0.7c-0.2-0.4-0.4-0.9-0.8-1.2c-2.2-4-3.5-8.5-3.6-13.4c-0.1-3.9,0.5-7.6,1.8-11.1
											C1428.1,703,1428.2,702.8,1428.3,702.4z"/>
										<g>
											<path class="st5" d="M1425.7,714.4c-0.1-3.9,0.5-7.6,1.8-11.1c0.1-0.3,0.2-0.7,0.3-1c0.1-0.3,0.2-0.5,0.3-0.9
												c0.4-0.9,0.9-1.7,1.3-2.5c0.2-0.4,0.4-0.9,0.8-1.2c0.2-0.4,0.5-0.8,0.8-1.2c0.1-0.2,0.3-0.4,0.4-0.5
												c0.9-1.1,1.7-2.2,2.7-3.2c1-1,2-1.8,3-2.7c0.4-0.3,0.9-0.7,1.3-1c1.4-1,2.8-1.7,4.3-2.4c3.5-1.6,7.4-2.6,11.5-2.7
												c8.7-0.2,16.5,3.3,22.1,9.1c0.5,0.5,1,1.1,1.4,1.6c0.1,0.2,0.3,0.3,0.4,0.5c0.3,0.3,0.5,0.8,0.9,1.1
												c0.9,1.2,1.5,2.4,2.2,3.7c0.2,0.4,0.4,0.9,0.7,1.3c1.6,3.5,2.5,7.4,2.6,11.4c0,0.5,0,1,0,1.5l49.2-0.4l-0.3-12.7
												c-0.1-2.6-2-3.6-4.6-3.5l-11.7,0.3c-1.7-7.4-4.6-13.3-8.2-18.7v-0.3l8.2-8.7c1.8-1.8,1.7-5-0.2-6.7l-14.9-14.1
												c-1.8-1.8-4.9-1.7-6.7,0.1l-8.5,8.6c-5.9-3.4-11.4-5.8-18.9-7.1V651l-0.3-11.7c-0.1-2.6-1.6-4-4.2-4l-20.5,0.5
												c-2.6,0.1-4.5,1.5-4.3,4.2l0.3,11.7c-7.4,1.7-12.8,4.6-18.3,8.2h-0.1l-8.6-8.2c-1.8-1.8-4.9-1.7-6.7,0.2l-14.1,14.9
												c-1.8,1.8-1.7,4.9,0.2,6.7l8.6,8.2c-3.4,5.9-5.8,12-7.1,18.7h-0.1l-11.7,0.8c-2.6,0.1-4.9,1.4-4.9,4l0.2,10.1l49.3-0.4
												C1425.7,714.7,1425.7,714.6,1425.7,714.4z"/>
										</g>
									</g>
								</g>
							</g>
						</g>
						<polygon class="st6" points="1593.3,632 1333.2,481.8 1333.2,481.8 1333.2,481.8 1333.1,481.8 1333.1,481.8 1073,632 
							1084.3,651.6 1333.2,507.9 1582,651.6 						"/>
					</g>
				</g>
			</g>
		</g>
	</g>
</g>
</svg>
