<?xml version="1.0" encoding="utf-8"?>
<!-- Generator: Adobe Illustrator 22.1.0, SVG Export Plug-In . SVG Version: 6.00 Build 0)  -->
<svg version="1.1" id="Layer_1" xmlns="http://www.w3.org/2000/svg" xmlns:xlink="http://www.w3.org/1999/xlink" x="0px" y="0px"
	 viewBox="0 0 981.9 632.5" style="enable-background:new 0 0 981.9 632.5;" xml:space="preserve">
<style type="text/css">
	.st0{fill:none;stroke:#1D1D1B;stroke-width:2;stroke-miterlimit:10;}
	.st1{fill:#31B4A8;stroke:#1D1D1B;stroke-width:2;stroke-miterlimit:10;}
	.st2{fill:#717070;stroke:#1D1D1B;stroke-width:2;stroke-miterlimit:10;}
	.st3{fill:#F07F1E;stroke:#1D1D1B;stroke-width:2;stroke-miterlimit:10;}
	.st4{fill:#F07F1E;}
</style>
<title>Asset 1</title>
<g>
	<g id="Layer_2_1_">
		<g id="Layer_1-2">
			<path class="st0" d="M351.6,590.5l-0.7-26.8c16.8-4.1,29.5-10.4,42-18.6l0.5,0.1l19.6,18.4c4.4,4.1,11.2,3.9,15.4-0.4l32.1-33.8
				c4.1-4.3,3.9-11.1-0.4-15.2l-19.4-18.1c7.7-13.3,13.1-25,16-42h0.2l26.8-0.7c6-0.2,10.1-5.7,9.9-11.7l-1.2-46.6
				c-0.1-6-4.5-8.1-10.4-7.9l-26.8,0.7c-3.6-15.2-9.9-29.6-18.6-42.5l0.1-0.7l18.4-19.8c4.1-4.4,3.9-11.2-0.4-15.4l-33.7-32
				c-4.3-4.1-11.1-4-15.2,0.4l-19.1,19.4c-13.3-7.6-26-13-43-16v-0.1l-0.6-26.8c-0.1-6-3.7-9.2-9.6-9l-46.6,1.2
				c-6,0.1-10.1,3.6-10,9.5l0.7,26.8c-16.8,4.1-29,10.3-41.5,18.6l-0.2-0.1L216.4,283c-4.3-4.1-11.2-3.9-15.3,0.4L168.9,317
				c-4.1,4.3-3.9,11.1,0.4,15.2l0,0l19.4,19.6c-7.9,13.4-13.4,28.1-16,43.4h-0.1l-26.8,0.7c-6,0.2-11.2,2.8-11.1,8.7l1.2,46.6
				c0.4,6.1,5.4,10.9,11.6,10.9l26.8-0.7c4.1,16.8,10.3,28.5,18.6,41h-0.1l-18.4,19.4c-4.1,4.3-3.9,11.1,0.4,15.2l0,0l33.8,32.1
				c4.3,4.1,11.1,3.9,15.2-0.4l0,0l18.6-19.4c13.3,7.7,28.9,13,42.4,16v0.1l0.7,26.8c0.1,6,4.8,12.1,10.8,12l46.6-1.1
				C348.8,602.8,351.8,596.4,351.6,590.5z M252.4,397.8c0.3-0.6,0.5-1.3,0.8-2c0.9-2,1.9-3.9,3-5.8c0.5-0.9,1.1-1.9,1.7-2.8
				s1.2-1.8,1.8-2.7c0.3-0.4,0.6-0.9,1-1.3c1.8-2.5,3.8-4.8,6-7.1c2.2-2.2,4.5-4.3,7-6.2c1-0.8,2-1.5,3-2.2
				c27.1-18.4,63.5-14.6,86.2,9.1c1.1,1.2,2.2,2.4,3.2,3.6c0.3,0.4,0.7,0.8,1,1.3c0.7,0.9,1.3,1.7,1.9,2.6c1.9,2.6,3.6,5.4,5,8.3
				c0.5,1,1,1.9,1.4,2.9c8.2,18.1,7.9,38.8-0.6,56.7c-0.5,1-1,1.9-1.5,2.9c-0.8,1.4-1.6,2.8-2.5,4.2c-0.6,0.9-1.2,1.8-1.8,2.7
				c-0.3,0.4-0.6,0.9-1,1.3c-0.6,0.9-1.3,1.7-2,2.5c-1,1.2-2.1,2.5-3.2,3.6c-0.7,0.8-1.5,1.5-2.3,2.3c-1.9,1.9-4,3.6-6.1,5.2
				c-0.9,0.6-1.7,1.3-2.6,1.9c-0.9,0.6-1.8,1.2-2.7,1.8c-1.4,0.8-2.8,1.6-4.2,2.4c-14.1,7.2-30.3,9.2-45.7,5.7
				c-1.1-0.2-2.1-0.5-3.2-0.8c-1.6-0.5-3.1-1-4.7-1.5c-1-0.4-2-0.8-3-1.2c-0.7-0.3-1.3-0.6-2-0.9c-1.3-0.6-2.6-1.3-3.9-1.9
				c-1-0.5-1.9-1-2.8-1.6c-0.7-0.4-1.5-0.9-2.2-1.4s-1.3-0.8-1.9-1.3c-0.4-0.3-0.9-0.6-1.3-0.9c-0.9-0.6-1.7-1.3-2.5-2
				c-0.4-0.3-0.8-0.7-1.2-1c-0.8-0.7-1.6-1.4-2.4-2.2c-0.4-0.4-0.8-0.7-1.1-1.1c-1.5-1.5-3-3.1-4.3-4.8c-0.3-0.4-0.7-0.8-1-1.3
				c-0.7-0.8-1.3-1.7-1.9-2.6c-0.6-0.9-1.2-1.8-1.8-2.7c-0.3-0.5-0.6-0.9-0.9-1.4c-0.6-0.9-1.1-1.9-1.6-2.8
				c-9.2-17-10.7-37.3-3.9-55.4C251.9,399.2,252.1,398.5,252.4,397.8z"/>
			<path class="st1" d="M366.7,380.6c0.4,0.4,0.7,0.8,1,1.3c0.7,0.8,1.3,1.7,1.9,2.6c1.9,2.6,3.6,5.4,5,8.3c0.5,1,1,1.9,1.4,2.9
				c3.7,8.2,5.7,17,5.9,26c0,1,0,1.8,0,3.1h111.7l-0.8-29.5c-0.1-6-4.5-8.1-10.4-7.9l-26.8,0.7c-3.6-15.2-9.9-29.6-18.6-42.5
				l0.1-0.7l18.4-19.7c4.1-4.4,3.9-11.2-0.4-15.4l-33.8-32.2c-4.3-4.1-11.1-3.9-15.2,0.4L387,297.4c-13.3-7.7-26-13.1-43-16v-0.1
				l-0.7-26.8c-0.2-6-3.7-9.2-9.6-9l-46.6,1.2c-5.9,0.1-10.1,3.5-9.9,9.5l0.7,26.8c-16.8,4.1-29,10.3-41.5,18.5l-0.2-0.1L216.7,283
				c-4.3-4.1-11.2-3.9-15.3,0.4L169.6,317c-4.1,4.3-3.9,11.1,0.4,15.2l19.4,19.6c-7.9,13.4-13.4,28.1-16,43.4h-0.1l-26.8,0.7
				c-5.9,0.1-11.2,2.8-11,8.8l0.5,20.1h112c-0.2-8.5,1.2-16.9,4.2-24.8c0.3-0.7,0.5-1.5,0.8-2.2s0.5-1.3,0.8-2
				c0.9-2,1.9-3.9,2.9-5.8c0.5-1,1.1-1.9,1.7-2.8s1.2-1.8,1.8-2.7l0.9-1.3c1.9-2.5,3.9-4.8,6-7.1c2.2-2.2,4.5-4.3,7-6.1
				c1-0.8,2-1.5,3-2.2c27.1-18.4,63.6-14.6,86.2,9.1C364.6,378.2,365.7,379.4,366.7,380.6z"/>
			<path class="st0" d="M566.1,308.7l-0.2-8.9c5-1.2,9.7-3.3,14-6.2h0.2l6.5,6.1c1.5,1.4,3.7,1.3,5.1-0.1l10.7-11.3
				c1.4-1.4,1.3-3.7-0.1-5.1l-6.5-6c2.7-4.3,4.5-9,5.3-14l0,0l8.9-0.2c2-0.2,3.5-1.9,3.3-3.9l0,0l-0.4-15.5c0-2-1.5-2.7-3.5-2.6
				l-8.9,0.2c-1.2-5.1-3.3-9.9-6.2-14.2v-0.2l6.2-6.6c1.4-1.5,1.3-3.8-0.1-5.1l-11.2-10.7c-1.4-1.4-3.7-1.3-5.1,0.1l-6.4,6.5
				c-4.4-2.6-9.3-4.5-14.3-5.3l0,0l-0.2-8.9c0.1-1.6-1.1-2.9-2.6-3c-0.2,0-0.4,0-0.6,0l-15.5,0.4c-2,0-3.4,1.2-3.3,3.2l0.2,8.9
				c-4.9,1.2-9.6,3.3-13.8,6.2h-0.1l-6.5-6.1c-1.4-1.4-3.7-1.3-5.1,0.1l-10.7,11.3c-1.4,1.4-1.3,3.7,0.1,5.1l6.5,6.5
				c-2.6,4.5-4.5,9.4-5.3,14.5l0,0l-8.9,0.2c-2,0-3.7,0.9-3.7,2.9l0.4,15.5c0.1,2,1.8,3.6,3.9,3.6l8.9-0.2c1.2,4.9,3.3,9.5,6.2,13.7
				l0,0l-6.2,6.4c-1.4,1.4-1.3,3.7,0.1,5.1l0,0l11.3,10.7c1.4,1.4,3.7,1.3,5.1-0.1l6.2-6.5c4.4,2.5,9.2,4.3,14.1,5.3l0,0l0.2,8.9
				c0,2,1.6,4,3.6,4l15.5-0.4C565.2,312.8,566.2,310.7,566.1,308.7z M533,244.5c0.1-0.2,0.2-0.4,0.3-0.6c0.3-0.7,0.6-1.3,1-1.9
				c0.2-0.3,0.4-0.6,0.6-0.9s0.4-0.6,0.6-0.9l0.3-0.4c1.2-1.7,2.7-3.1,4.3-4.4c0.3-0.3,0.7-0.5,1-0.7c1-0.7,2.1-1.3,3.3-1.8
				c8.7-4,18.9-2,25.5,4.9c0.4,0.4,0.7,0.8,1.1,1.2l0.3,0.4c0.2,0.3,0.4,0.6,0.7,0.9c0.6,0.9,1.2,1.8,1.7,2.8c0.2,0.3,0.3,0.6,0.5,1
				c2.7,6,2.6,12.9-0.2,18.9c-0.2,0.3-0.3,0.6-0.5,1c-0.3,0.5-0.5,0.9-0.8,1.4c-0.2,0.3-0.4,0.6-0.6,0.9c-0.2,0.3-0.2,0.3-0.3,0.4
				c-0.2,0.3-0.4,0.6-0.7,0.8c-0.3,0.4-0.7,0.8-1.1,1.2l-0.8,0.8c-0.6,0.6-1.3,1.2-2,1.7c-0.3,0.2-0.6,0.4-0.9,0.6
				c-0.3,0.2-0.6,0.4-0.9,0.6c-0.5,0.3-0.9,0.6-1.4,0.8c-3,1.5-6.3,2.4-9.6,2.4c-1.9,0-3.8-0.1-5.6-0.6c-0.4-0.1-0.7-0.2-1.1-0.3
				c-0.5-0.2-1-0.3-1.6-0.5c-0.3-0.1-0.7-0.3-1-0.4l-0.7-0.3c-0.4-0.2-0.9-0.4-1.3-0.6l-0.9-0.5l-0.7-0.5c-0.2-0.1-0.4-0.3-0.6-0.4
				l-0.4-0.3l-0.8-0.7l-0.4-0.4c-0.3-0.2-0.5-0.5-0.8-0.7l-0.4-0.4c-0.5-0.5-1-1-1.5-1.6l-0.3-0.4c-0.2-0.3-0.4-0.6-0.6-0.9
				c-0.2-0.3-0.4-0.6-0.6-0.9c-0.2-0.3-0.2-0.3-0.3-0.5s-0.4-0.6-0.5-0.9c-3.1-5.7-3.6-12.4-1.3-18.5C532.9,245,533,244.7,533,244.5
				L533,244.5z"/>
			<path class="st2" d="M532.8,245c0.1-0.2,0.2-0.5,0.3-0.7l0.3-0.6c0.3-0.7,0.6-1.3,1-1.9c0.2-0.3,0.4-0.6,0.6-0.9s0.4-0.6,0.6-0.9
				c0.1-0.1,0.2-0.3,0.3-0.4c0.6-0.8,1.3-1.6,2-2.4c0.7-0.7,1.5-1.4,2.3-2.1c0.3-0.3,0.7-0.5,1-0.7c1-0.7,2.1-1.3,3.3-1.8
				c8.7-4,18.9-2,25.5,4.9c0.4,0.4,0.7,0.8,1.1,1.2l0.3,0.4c0.2,0.3,0.4,0.6,0.7,0.9c0.6,0.9,1.2,1.8,1.7,2.8c0.2,0.3,0.3,0.6,0.5,1
				c1.2,2.7,1.9,5.7,2,8.6c0,0.3,0,0.5,0,0.8l37.2-0.1l-0.3-9.4c0-2-1.5-2.7-3.5-2.6l-8.9,0.2c-1.2-5.1-3.3-9.9-6.2-14.2v-0.2
				l6.1-6.6c1.4-1.5,1.3-3.8-0.1-5.1l-11.2-10.7c-1.4-1.4-3.7-1.3-5.1,0.1l-6.4,6.5c-4.4-2.6-9.3-4.5-14.3-5.3l0,0l-0.2-8.9
				c0.1-1.6-1.1-2.9-2.6-3c-0.2,0-0.4,0-0.6,0l-15.5,0.4c-2,0.1-3.4,1.2-3.3,3.2l0.2,8.9c-4.9,1.2-9.6,3.3-13.8,6.2h-0.1l-6.5-6.1
				c-1.4-1.4-3.7-1.3-5.1,0.1l-10.7,11.3c-1.4,1.4-1.3,3.7,0.1,5.1l0,0l6.5,6.5c-2.6,4.5-4.5,9.4-5.3,14.5l0,0l-8.9,0.2
				c-2,0.1-3.7,0.9-3.7,2.9l0.2,6.6l37.4-0.1C531.4,250.4,531.9,247.7,532.8,245z"/>
			<path class="st0" d="M753,596.4l-0.6-22.3c12.5-3,24.3-8.2,34.9-15.4l0.4,0.1l16.3,15.3c3.6,3.4,9.3,3.3,12.8-0.3l26.7-28.1
				c3.4-3.6,3.3-9.2-0.3-12.7l-16.1-15c6.4-11.1,10.9-20.8,13.3-34.9h0.1l22.2-0.6c5-0.1,8.4-4.8,8.3-9.7l-1-38.7
				c-0.1-4.9-3.7-6.7-8.7-6.6l-22.2,0.6c-3-12.6-8.2-24.6-15.5-35.3l0.1-0.6l15.3-16.4c3.4-3.6,3.3-9.3-0.3-12.8l-28.1-26.7
				c-3.6-3.4-9.2-3.3-12.7,0.3L782,352.7c-11.1-6.4-21.6-10.9-35.7-13.3v-0.1l-0.6-22.3c-0.1-4.9-3-7.6-8-7.5l-38.7,1
				c-5,0.1-8.4,3-8.3,7.9l0.6,22.3c-14,3.4-24.1,8.6-34.5,15.4l-0.2-0.1l-16.2-15.3c-3.6-3.4-9.3-3.3-12.7,0.3L601,369.1
				c-3.4,3.6-3.2,9.2,0.3,12.7l16.2,16.3c-6.6,11.1-11.1,23.4-13.3,36.1h-0.1l-22.2,0.6c-5,0.1-9.3,2.3-9.2,7.2l1,38.7
				c0.3,5.1,4.5,9,9.6,9l22.2-0.6c3.4,14,8.6,23.7,15.4,34.1h0.1l-15.3,16.1c-3.4,3.5-3.3,9.2,0.2,12.6l0.1,0.1l28.1,26.7
				c3.6,3.4,9.3,3.2,12.7-0.3l15.5-16.1c11,6.1,22.9,10.6,35.3,13.3v0.1l0.6,22.3c0.1,5,4,10.1,8.9,10l38.7-1
				C750.6,606.7,753.1,601.3,753,596.4z M670.6,436.3c0.2-0.5,0.5-1.1,0.7-1.6c0.8-1.6,1.6-3.3,2.5-4.8c0.5-0.8,0.9-1.5,1.4-2.3
				s1-1.5,1.5-2.2l0.8-1.1c1.5-2.1,3.2-4,5-5.9c1.8-1.8,3.7-3.6,5.8-5.1c0.8-0.6,1.7-1.2,2.5-1.8c2.6-1.8,5.3-3.3,8.1-4.6
				c21.6-9.9,47.1-5,63.5,12.1c0.9,1,1.8,2,2.7,3l0.8,1c0.5,0.7,1.1,1.4,1.6,2.1c1.6,2.2,3,4.5,4.2,6.9c0.4,0.8,0.8,1.6,1.2,2.4
				c6.8,15,6.6,32.2-0.5,47.1c-0.4,0.8-0.8,1.6-1.2,2.4c-0.6,1.2-1.3,2.3-2,3.5c-0.5,0.8-1,1.5-1.5,2.2l-0.8,1.1
				c-0.5,0.7-1.1,1.4-1.7,2.1c-0.8,1-1.7,2-2.7,3c-0.6,0.7-1.3,1.3-1.9,1.9c-1.6,1.5-3.3,3-5.1,4.3c-0.7,0.5-1.5,1.1-2.2,1.6
				s-1.5,1-2.3,1.5c-1.2,0.7-2.3,1.4-3.5,2c-11.7,6-25.2,7.7-38,4.7c-0.9-0.2-1.8-0.4-2.7-0.7c-1.3-0.4-2.6-0.8-3.9-1.3
				c-0.8-0.3-1.7-0.6-2.5-1l-1.7-0.7c-1.1-0.5-2.2-1-3.2-1.6c-0.8-0.4-1.6-0.9-2.3-1.3c-0.6-0.4-1.2-0.8-1.8-1.1s-1-0.7-1.6-1.1
				l-1.1-0.8c-0.7-0.5-1.4-1.1-2.1-1.6c-0.3-0.3-0.7-0.6-1-0.9c-0.7-0.6-1.3-1.2-2-1.8c-0.3-0.3-0.7-0.6-1-0.9
				c-1.3-1.3-2.5-2.6-3.6-4l-0.8-1c-0.5-0.7-1.1-1.4-1.6-2.2s-1-1.5-1.5-2.2l-0.7-1.1c-0.5-0.8-0.9-1.5-1.3-2.3
				c-7.7-14.2-8.9-31-3.3-46.1C670.1,437.5,670.3,436.9,670.6,436.3z"/>
			<path class="st3" d="M665.6,459c-0.2-7.1,1-14.2,3.5-20.9c0.2-0.6,0.5-1.2,0.7-1.8s0.5-1.1,0.7-1.6c0.8-1.6,1.6-3.3,2.5-4.8
				c0.4-0.8,0.9-1.5,1.4-2.3s1-1.5,1.5-2.2l0.8-1.1c1.5-2.1,3.2-4,5-5.9c1.8-1.8,3.7-3.6,5.8-5.1c0.8-0.6,1.7-1.2,2.5-1.8
				c2.6-1.8,5.3-3.3,8.1-4.6c21.6-9.9,47.1-5.1,63.6,12.1c0.9,1,1.8,2,2.7,3l0.8,1c0.5,0.7,1.1,1.4,1.6,2.1c1.6,2.2,3,4.5,4.2,6.9
				c0.4,0.8,0.8,1.6,1.2,2.4c3.1,6.8,4.7,14.2,4.9,21.6c0,1,0,1.9,0,2.9l92.8-0.9l-0.6-23.9c-0.1-4.9-3.7-6.7-8.7-6.6l-22.3,0.6
				c-3-12.6-8.2-24.6-15.5-35.3l0.1-0.6l15.3-16.4c3.4-3.6,3.3-9.3-0.3-12.8l-28.1-26.7c-3.6-3.4-9.2-3.3-12.7,0.3l-15.9,16.1
				c-11.1-6.4-21.6-10.9-35.7-13.3v-0.1L745,317c-0.1-4.9-3-7.6-8-7.5l-38.7,1c-5,0.1-8.4,3-8.3,7.9l0.6,22.3
				c-13.9,3.4-24.1,8.6-34.5,15.4l-0.2-0.1l-16.2-15.3c-3.6-3.4-9.3-3.3-12.7,0.3l-26.7,28.1c-3.4,3.6-3.2,9.2,0.3,12.7l16.2,15.5
				c-6.4,10.9-10.8,22.9-13.3,35.3h-0.1l-22.3,1.4c-5,0.1-9.3,2.7-9.2,7.6l0.5,19.1l93.2-0.8C665.6,459.6,665.6,459.3,665.6,459z"/>
			<polygon class="st4" points="981.9,303.5 491,20 491,20 491,20 490.9,20 490.9,20 0,303.5 21.3,340.3 491,69.1 960.6,340.3 			
				"/>
		</g>
	</g>
</g>
</svg>
